# xmcd
#
# Track frame offsets:
#	150
#	20608
#	39523
#	62086
#	81525
#	100284
#	116687
#	129342
#	143209
#	164746
#	178945
#	194670
#	211656
#	227266
#	242029
#	257666
#
# Disc length: 3709 seconds
#
# Revision: 0
# Processed by: cddbd v1.5.1PL0 Copyright (c) Steve Scherf et al.
# Submitted via: EasyCDDAExtractor 8.0.2.1
#
DISCID=e60e7b10
DTITLE=andrzej zaucha - the best
DYEAR=1900
DGENRE=pop
TTITLE0=bylas serca biciem
TTITLE1=nas nie rozdzieli
TTITLE2=szczescie nosi twoje imie
TTITLE3=mus meski blues
TTITLE4=siodmy rok
TTITLE5=piosenka na przebudzenie
TTITLE6=jak zmienic swiat
TTITLE7=o cudzie w tancbudzie
TTITLE8=rocznicowa piosenka dla elzbiety i smoka
TTITLE9=sam pan wie
TTITLE10=lady love
TTITLE11=piosenka z klawesynem
TTITLE12=obojetnie kim jestes
TTITLE13=mysmy byli sobie pisani
TTITLE14=sproboj mnie dogonic
TTITLE15=just the way you are
EXTD=
EXTT0=
EXTT1=
EXTT2=
EXTT3=
EXTT4=
EXTT5=
EXTT6=
EXTT7=
EXTT8=
EXTT9=
EXTT10=
EXTT11=
EXTT12=
EXTT13=
EXTT14=
EXTT15=
PLAYORDER=
